<?xml version="1.0" encoding="UTF-8"?>
<svg xmlns="http://www.w3.org/2000/svg" xmlns:xlink="http://www.w3.org/1999/xlink" width="324pt" height="216pt" viewBox="0 0 324 216" version="1.1">
<g id="surface1">
<path style=" stroke:none;fill-rule:nonzero;fill:rgb(14.901733%,10.588074%,2.352905%);fill-opacity:1;" d="M 272.761719 135.578125 C 272.585938 135.457031 272.386719 135.355469 272.164063 135.277344 C 271.945313 135.210938 271.71875 135.144531 271.492188 135.09375 C 271.261719 135.039063 271.035156 134.988281 270.8125 134.941406 C 270.585938 134.898438 270.390625 134.835938 270.214844 134.765625 C 270.039063 134.695313 269.898438 134.605469 269.792969 134.496094 C 269.691406 134.382813 269.636719 134.238281 269.636719 134.058594 C 269.636719 133.875 269.667969 133.714844 269.746094 133.585938 C 269.820313 133.457031 269.917969 133.359375 270.039063 133.28125 C 270.160156 133.207031 270.300781 133.15625 270.457031 133.121094 C 270.609375 133.089844 270.773438 133.070313 270.9375 133.070313 C 271.332031 133.070313 271.664063 133.167969 271.921875 133.351563 C 272.179688 133.539063 272.324219 133.839844 272.371094 134.257813 L 273.101563 134.257813 C 273.089844 133.9375 273.03125 133.664063 272.917969 133.433594 C 272.808594 133.203125 272.65625 133.011719 272.464844 132.859375 C 272.273438 132.707031 272.050781 132.597656 271.792969 132.527344 C 271.539063 132.453125 271.265625 132.417969 270.96875 132.417969 C 270.703125 132.417969 270.441406 132.453125 270.195313 132.523438 C 269.941406 132.589844 269.71875 132.691406 269.523438 132.828125 C 269.320313 132.96875 269.160156 133.140625 269.042969 133.355469 C 268.925781 133.570313 268.863281 133.824219 268.863281 134.113281 C 268.863281 134.378906 268.917969 134.601563 269.023438 134.777344 C 269.128906 134.953125 269.273438 135.09375 269.445313 135.207031 C 269.621094 135.316406 269.820313 135.40625 270.039063 135.472656 C 270.265625 135.542969 270.492188 135.597656 270.71875 135.648438 C 270.949219 135.703125 271.171875 135.75 271.398438 135.800781 C 271.617188 135.851563 271.816406 135.914063 271.988281 135.996094 C 272.164063 136.070313 272.308594 136.171875 272.414063 136.296875 C 272.515625 136.417969 272.574219 136.582031 272.574219 136.78125 C 272.574219 136.992188 272.527344 137.167969 272.441406 137.300781 C 272.355469 137.4375 272.242188 137.542969 272.101563 137.621094 C 271.960938 137.703125 271.800781 137.753906 271.625 137.789063 C 271.453125 137.820313 271.277344 137.835938 271.101563 137.835938 C 270.886719 137.835938 270.675781 137.808594 270.472656 137.753906 C 270.265625 137.703125 270.085938 137.617188 269.933594 137.5 C 269.777344 137.390625 269.652344 137.246094 269.558594 137.070313 C 269.464844 136.894531 269.417969 136.683594 269.417969 136.441406 L 268.683594 136.441406 C 268.683594 136.792969 268.75 137.097656 268.875 137.351563 C 269.003906 137.613281 269.175781 137.820313 269.394531 137.988281 C 269.613281 138.152344 269.867188 138.277344 270.15625 138.359375 C 270.445313 138.4375 270.753906 138.484375 271.074219 138.484375 C 271.34375 138.484375 271.609375 138.449219 271.878906 138.386719 C 272.144531 138.328125 272.386719 138.222656 272.601563 138.085938 C 272.820313 137.949219 272.992188 137.769531 273.132813 137.554688 C 273.269531 137.332031 273.339844 137.070313 273.339844 136.761719 C 273.339844 136.476563 273.289063 136.238281 273.183594 136.046875 C 273.074219 135.859375 272.9375 135.703125 272.761719 135.578125 Z M 279.011719 132.554688 L 277.183594 137.429688 L 275.351563 132.554688 L 274.296875 132.554688 L 274.296875 138.351563 L 275.03125 138.351563 L 275.03125 133.53125 L 275.050781 133.53125 L 276.855469 138.351563 L 277.511719 138.351563 L 279.316406 133.53125 L 279.335938 133.53125 L 279.335938 138.351563 L 280.066406 138.351563 L 280.066406 132.554688 Z M 267.46875 153.308594 C 265.546875 153.039063 265.441406 152.507813 265.441406 148.664063 L 265.441406 139.488281 C 265.441406 135.804688 263.359375 132.875 259.09375 132.875 C 256.585938 132.875 253.972656 134.097656 251.835938 135.59375 C 251.351563 135.914063 250.980469 136.128906 250.503906 136.015625 C 249.003906 133.832031 247.515625 132.875 244.847656 132.875 C 242.28125 132.875 239.773438 134.152344 237.75 135.59375 C 237.378906 135.59375 237.164063 135.324219 237.164063 135.003906 C 237.164063 134.527344 237.164063 133.722656 237.269531 132.496094 C 237.164063 132.230469 236.894531 132.125 236.679688 132.125 C 235.613281 132.925781 232.570313 134.3125 231.347656 134.738281 C 231.085938 134.898438 231.085938 135.484375 231.292969 135.699219 L 231.773438 136.015625 C 233.210938 136.980469 233.210938 137.246094 233.210938 139.328125 L 233.210938 148.664063 C 233.210938 152.507813 233.164063 153.039063 231.183594 153.308594 L 230.085938 153.441406 C 230.152344 153.054688 230.054688 152.570313 229.855469 152.398438 C 229.105469 152.558594 228.414063 152.667969 227.773438 152.667969 C 226.28125 152.667969 226.117188 151.066406 226.117188 146.851563 L 226.117188 137.886719 C 226.117188 135.914063 226.171875 134.261719 226.28125 133.246094 C 226.226563 133.035156 226.066406 132.925781 225.796875 132.875 C 224.625 133.40625 221.691406 133.78125 219.554688 133.832031 C 219.128906 134.042969 219.128906 134.792969 219.5 135.003906 L 220.195313 135.273438 C 221.796875 135.914063 222.171875 136.015625 222.171875 139.488281 L 222.171875 148.238281 C 222.171875 149.894531 221.796875 150.691406 221.101563 151.332031 C 219.925781 152.347656 218.21875 152.933594 216.78125 152.933594 C 212.726563 152.933594 211.820313 150.480469 211.820313 146.800781 L 211.820313 137.886719 C 211.820313 135.273438 211.875 134.152344 211.976563 133.246094 C 211.925781 133.035156 211.765625 132.925781 211.445313 132.875 C 210.273438 133.296875 208.191406 133.78125 205.738281 133.832031 C 205.363281 133.996094 205.308594 134.738281 205.628906 135.003906 L 206.269531 135.273438 C 207.871094 135.96875 207.871094 136.449219 207.871094 139.808594 L 207.871094 148.71875 C 207.871094 153.039063 209.632813 155.386719 214.324219 155.386719 C 217.476563 155.386719 220.089844 153.628906 221.691406 152.613281 C 222.011719 152.613281 222.171875 152.878906 222.171875 153.363281 L 222.171875 155.546875 C 222.277344 155.761719 222.546875 155.921875 222.808594 155.921875 C 224.589844 154.925781 227.601563 154.394531 229.679688 153.972656 C 229.65625 154.316406 229.78125 154.703125 230.011719 154.796875 C 231.664063 154.695313 233.269531 154.636719 235.191406 154.636719 C 237.054688 154.636719 238.601563 154.695313 240.042969 154.796875 C 240.417969 154.636719 240.527344 153.734375 240.148438 153.464844 L 239.1875 153.308594 C 237.269531 152.988281 237.164063 152.507813 237.164063 148.664063 L 237.164063 140.394531 C 237.164063 138.683594 237.429688 137.992188 237.960938 137.355469 C 238.765625 136.390625 240.253906 135.433594 242.445313 135.433594 C 245.75 135.433594 247.355469 137.355469 247.355469 140.925781 L 247.355469 148.664063 C 247.355469 152.507813 247.296875 152.988281 245.328125 153.308594 L 244.367188 153.464844 C 243.992188 153.734375 244.101563 154.636719 244.46875 154.796875 C 245.964844 154.695313 247.402344 154.636719 249.324219 154.636719 C 251.195313 154.636719 252.742188 154.695313 254.339844 154.796875 C 254.71875 154.636719 254.824219 153.734375 254.453125 153.464844 L 253.328125 153.308594 C 251.410156 153.039063 251.300781 152.507813 251.300781 148.664063 L 251.300781 140.503906 C 251.300781 138.636719 251.464844 138.101563 252.101563 137.296875 C 252.851563 136.339844 254.5 135.433594 256.527344 135.433594 C 259.890625 135.433594 261.492188 137.296875 261.492188 140.925781 L 261.492188 148.664063 C 261.492188 152.507813 261.4375 152.988281 259.464844 153.308594 L 258.5 153.464844 C 258.128906 153.734375 258.238281 154.636719 258.609375 154.796875 C 260.105469 154.695313 261.546875 154.636719 263.46875 154.636719 C 265.339844 154.636719 266.882813 154.695313 268.640625 154.796875 C 269.015625 154.636719 269.121094 153.734375 268.75 153.464844 Z M 198.957031 142.101563 C 197.089844 141.035156 194.851563 139.859375 194.851563 137.671875 C 194.851563 135.753906 196.1875 134.417969 198.265625 134.417969 C 200.457031 134.417969 202.054688 135.96875 202.960938 138.316406 C 203.226563 138.636719 204.03125 138.527344 204.242188 138.152344 C 204.242188 136.710938 203.871094 135.003906 203.390625 133.832031 C 202.90625 133.40625 200.9375 132.875 198.695313 132.875 C 194.636719 132.875 191.4375 135.058594 191.4375 138.957031 C 191.4375 141.886719 193.621094 143.757813 196.722656 145.519531 C 198.695313 146.640625 200.828125 147.96875 200.828125 150.425781 C 200.828125 152.71875 199.171875 153.839844 197.25 153.839844 C 194.210938 153.839844 192.503906 151.277344 191.59375 148.347656 C 191.328125 148.027344 190.636719 148.078125 190.371094 148.398438 C 190.265625 150.160156 190.585938 152.773438 191.007813 153.789063 C 192.34375 154.855469 194.210938 155.386719 196.722656 155.386719 C 200.667969 155.386719 204.40625 153.363281 204.40625 149.304688 C 204.40625 145.519531 201.785156 143.707031 198.957031 142.101563 Z M 178.308594 153.628906 C 177.191406 153.628906 175.539063 153.253906 174.472656 152.453125 C 173.402344 151.597656 172.871094 150.957031 172.871094 149.25 L 172.871094 140.078125 C 172.871094 138.316406 173.027344 137.515625 173.511719 136.929688 C 174.097656 136.289063 175.75 135.433594 178.042969 135.433594 C 182.84375 135.433594 185.246094 139.757813 185.246094 144.023438 C 185.246094 149.574219 182.6875 153.628906 178.308594 153.628906 Z M 180.710938 132.875 C 177.296875 132.875 173.933594 135.058594 173.246094 135.378906 C 172.871094 135.378906 172.761719 135.058594 172.761719 134.683594 C 172.761719 133.996094 172.871094 133.191406 172.976563 132.230469 C 172.871094 131.96875 172.65625 131.859375 172.339844 131.859375 C 170.949219 132.875 168.441406 134.152344 167.054688 134.738281 C 166.785156 134.898438 166.785156 135.484375 167.003906 135.699219 L 167.480469 136.015625 C 168.921875 136.980469 168.921875 137.246094 168.921875 139.328125 L 168.921875 162.273438 C 168.921875 166.109375 168.867188 166.648438 166.894531 166.910156 L 165.777344 167.074219 C 165.398438 167.339844 165.503906 168.246094 165.878906 168.40625 C 167.371094 168.296875 168.96875 168.246094 170.894531 168.246094 C 172.761719 168.246094 174.308594 168.296875 176.871094 168.40625 C 177.242188 168.246094 177.351563 167.339844 176.980469 167.074219 L 174.898438 166.804688 C 172.976563 166.539063 172.871094 166.0625 172.871094 162.273438 L 172.871094 156.667969 C 172.871094 155.546875 173.136719 155.277344 173.613281 155.171875 C 174.097656 155.277344 175.589844 155.386719 176.550781 155.386719 C 184.125 155.386719 189.570313 150.054688 189.570313 142.632813 C 189.570313 137.246094 186.097656 132.875 180.710938 132.875 Z M 160.171875 126.894531 C 161.667969 126.894531 163 126.042969 163 124.125 C 163 122.625 161.929688 121.347656 160.335938 121.347656 C 158.730469 121.347656 157.449219 122.464844 157.449219 124.226563 C 157.449219 125.667969 158.515625 126.894531 160.171875 126.894531 Z M 165.667969 153.464844 L 164.546875 153.308594 C 162.625 153.039063 162.519531 152.507813 162.519531 148.664063 L 162.519531 139.058594 C 162.519531 136.871094 162.625 134.3125 162.730469 132.445313 C 162.679688 132.230469 162.46875 132.125 162.195313 132.125 C 160.972656 132.925781 157.933594 134.3125 156.703125 134.738281 C 156.4375 134.898438 156.4375 135.484375 156.648438 135.699219 L 157.132813 136.015625 C 158.570313 136.980469 158.570313 137.246094 158.570313 139.328125 L 158.570313 148.664063 C 158.570313 152.507813 158.515625 153.039063 156.542969 153.308594 L 155.421875 153.464844 C 155.046875 153.734375 155.15625 154.636719 155.527344 154.796875 C 157.023438 154.695313 158.625 154.636719 160.546875 154.636719 C 162.410156 154.636719 163.960938 154.695313 165.5625 154.796875 C 165.933594 154.636719 166.039063 153.734375 165.667969 153.464844 Z M 144.734375 132.273438 C 143.269531 132.273438 141.980469 132.589844 140.871094 133.167969 C 139.710938 133.789063 138.691406 134.632813 137.84375 135.789063 L 137.757813 135.789063 C 136.820313 133.5625 134.644531 132.273438 131.84375 132.273438 C 128.0625 132.273438 126.152344 134.414063 125.351563 135.523438 L 125.171875 135.523438 L 124.859375 132.765625 L 118.148438 132.765625 C 118.238281 134.808594 118.324219 137.296875 118.324219 140.234375 L 118.324219 154.636719 L 126.105469 154.636719 L 126.105469 142.148438 C 126.105469 141.613281 126.152344 141.035156 126.332031 140.503906 C 126.640625 139.785156 127.351563 138.722656 128.773438 138.722656 C 130.597656 138.722656 131.351563 140.320313 131.351563 142.769531 L 131.351563 154.636719 L 139.132813 154.636719 L 139.132813 142.191406 C 139.132813 141.703125 139.179688 141.035156 139.359375 140.589844 C 139.710938 139.523438 140.511719 138.722656 141.804688 138.722656 C 143.578125 138.722656 144.382813 140.28125 144.382813 142.992188 L 144.382813 154.636719 L 152.160156 154.636719 L 152.160156 141.789063 C 152.160156 135.699219 149.445313 132.273438 144.734375 132.273438 Z M 102.984375 141.082031 C 103.117188 139.703125 104.054688 137.519531 106.410156 137.519531 C 108.941406 137.519531 109.523438 139.835938 109.523438 141.082031 Z M 106.8125 132.273438 C 98.761719 132.273438 95.46875 138.855469 95.46875 143.921875 C 95.46875 150.863281 99.832031 155.085938 107.519531 155.085938 C 110.234375 155.085938 113.078125 154.730469 115.707031 153.707031 L 114.679688 148.375 C 112.726563 148.996094 110.765625 149.214844 108.722656 149.214844 C 105.878906 149.214844 103.34375 148.238281 103.074219 146.507813 L 116.59375 146.507813 C 116.722656 145.96875 116.90625 144.769531 116.90625 143.480469 C 116.90625 137.476563 113.882813 132.273438 106.8125 132.273438 Z M 87.355469 136.722656 L 87.179688 136.722656 L 86.867188 132.765625 L 80.019531 132.765625 C 80.152344 134.589844 80.195313 136.679688 80.195313 140.144531 L 80.195313 154.636719 L 88.246094 154.636719 L 88.246094 143.839844 C 88.246094 143.300781 88.289063 142.8125 88.332031 142.457031 C 88.777344 140.683594 90.378906 139.703125 92.738281 139.703125 C 93.578125 139.703125 94.203125 139.785156 94.78125 139.925781 L 94.78125 132.410156 C 94.203125 132.273438 93.894531 132.273438 93.179688 132.273438 C 91.269531 132.273438 88.511719 133.386719 87.355469 136.722656 Z M 66.992188 149.484375 L 66.949219 149.484375 C 64.5 149.484375 63.433594 146.996094 63.433594 143.707031 C 63.433594 140.8125 64.328125 137.921875 66.992188 137.921875 C 69.347656 137.921875 70.328125 140.683594 70.328125 143.707031 C 70.328125 147.214844 69.171875 149.484375 66.992188 149.484375 Z M 67.214844 132.273438 C 59.746094 132.273438 55.164063 136.902344 55.164063 143.878906 C 55.164063 150.992188 60.234375 155.132813 66.773438 155.132813 L 66.816406 155.132813 C 72.90625 155.132813 78.597656 151.4375 78.597656 143.480469 C 78.597656 136.902344 74.058594 132.273438 67.214844 132.273438 Z M 45.472656 154.636719 L 53.523438 154.636719 L 53.523438 123.027344 L 45.472656 123.027344 L 45.472656 154.636719 "/>
<path style=" stroke:none;fill-rule:nonzero;fill:rgb(13.699341%,12.199402%,12.5%);fill-opacity:1;" d="M 220.597656 96.574219 C 220.597656 96.574219 212.742188 95.902344 208.773438 95.902344 C 204.691406 95.902344 201.292969 96.015625 197.890625 96.242188 C 197.09375 95.902344 196.871094 93.976563 197.664063 93.410156 L 200.269531 93.070313 C 204.464844 92.503906 204.578125 91.371094 204.578125 83.207031 L 204.578125 55.390625 C 201.460938 57.378906 198.460938 59.761719 195.664063 62.554688 C 179.863281 78.359375 176.761719 100.882813 188.738281 112.855469 C 197.167969 121.285156 210.804688 122.238281 223.65625 116.570313 L 223.65625 103.601563 C 223.65625 99.179688 223.148438 97.003906 220.597656 96.574219 "/>
<path style=" stroke:none;fill-rule:nonzero;fill:rgb(13.699341%,12.199402%,12.5%);fill-opacity:1;" d="M 245.964844 55.632813 C 237.960938 47.621094 225.238281 46.363281 212.964844 51.121094 L 212.964844 83.207031 C 212.964844 91.371094 213.351563 92.753906 217.273438 93.070313 C 217.273438 93.070313 228.921875 89.890625 231.367188 88.296875 C 231.933594 88.296875 232.386719 88.523438 232.5 88.976563 C 232.273438 92.941406 232.042969 98.386719 232.042969 103.035156 L 232.042969 111.816406 C 234.476563 110.105469 236.828125 108.148438 239.042969 105.933594 C 254.84375 90.125 257.945313 67.605469 245.964844 55.632813 "/>
<path style=" stroke:none;fill-rule:nonzero;fill:rgb(0%,68.234253%,93.72406%);fill-opacity:1;" d="M 227.058594 77.183594 C 223.542969 77.183594 221.277344 74.578125 221.277344 71.519531 C 221.277344 67.773438 223.996094 65.394531 227.398438 65.394531 C 230.800781 65.394531 233.066406 68.113281 233.066406 71.289063 C 233.066406 75.371094 230.234375 77.183594 227.058594 77.183594 "/>
<path style="fill:none;stroke-width:5;stroke-linecap:butt;stroke-linejoin:miter;stroke:rgb(0%,0%,0%);stroke-opacity:1;stroke-miterlimit:4;" d="M 270 360 L 0 360 " transform="matrix(0.1,0,0,-0.1,0,216)"/>
<path style="fill:none;stroke-width:5;stroke-linecap:butt;stroke-linejoin:miter;stroke:rgb(0%,0%,0%);stroke-opacity:1;stroke-miterlimit:4;" d="M 360 270 L 360 0 " transform="matrix(0.1,0,0,-0.1,0,216)"/>
<path style="fill:none;stroke-width:5;stroke-linecap:butt;stroke-linejoin:miter;stroke:rgb(0%,0%,0%);stroke-opacity:1;stroke-miterlimit:4;" d="M 270 1800 L 0 1800 " transform="matrix(0.1,0,0,-0.1,0,216)"/>
<path style="fill:none;stroke-width:5;stroke-linecap:butt;stroke-linejoin:miter;stroke:rgb(0%,0%,0%);stroke-opacity:1;stroke-miterlimit:4;" d="M 360 1890 L 360 2160 " transform="matrix(0.1,0,0,-0.1,0,216)"/>
<path style="fill:none;stroke-width:5;stroke-linecap:butt;stroke-linejoin:miter;stroke:rgb(0%,0%,0%);stroke-opacity:1;stroke-miterlimit:4;" d="M 2970 1800 L 3240 1800 " transform="matrix(0.1,0,0,-0.1,0,216)"/>
<path style="fill:none;stroke-width:5;stroke-linecap:butt;stroke-linejoin:miter;stroke:rgb(0%,0%,0%);stroke-opacity:1;stroke-miterlimit:4;" d="M 2880 1890 L 2880 2160 " transform="matrix(0.1,0,0,-0.1,0,216)"/>
<path style="fill:none;stroke-width:5;stroke-linecap:butt;stroke-linejoin:miter;stroke:rgb(0%,0%,0%);stroke-opacity:1;stroke-miterlimit:4;" d="M 2970 360 L 3240 360 " transform="matrix(0.1,0,0,-0.1,0,216)"/>
<path style="fill:none;stroke-width:5;stroke-linecap:butt;stroke-linejoin:miter;stroke:rgb(0%,0%,0%);stroke-opacity:1;stroke-miterlimit:4;" d="M 2880 270 L 2880 0 " transform="matrix(0.1,0,0,-0.1,0,216)"/>
</g>
</svg>
